<?xml version="1.0" standalone="no"?>
<!DOCTYPE svg PUBLIC "-//W3C//DTD SVG 20010904//EN"
 "http://www.w3.org/TR/2001/REC-SVG-20010904/DTD/svg10.dtd">
<svg version="1.0" xmlns="http://www.w3.org/2000/svg"
 width="405.000000pt" height="405.000000pt" viewBox="0 0 405.000000 405.000000"
 preserveAspectRatio="xMidYMid meet">
<metadata>
Created by potrace 1.14, written by Peter Selinger 2001-2017
</metadata>
<g transform="translate(0.000000,405.000000) scale(0.100000,-0.100000)"
fill="#000000" stroke="none">
<path d="M1299 3955 c-2 -2 -65 -6 -139 -9 -361 -18 -486 -37 -629 -99 -300
-129 -463 -377 -497 -754 -3 -37 -8 -81 -9 -98 -14 -119 -20 -401 -19 -905 1
-1025 5 -1115 58 -1322 105 -410 379 -608 906 -655 47 -5 510 -8 1030 -8 837
0 1137 5 1182 19 7 3 33 7 58 10 154 17 348 90 455 172 186 141 277 321 329
649 3 17 8 71 13 120 11 119 10 1815 0 1930 -33 346 -144 591 -335 739 -83 63
-228 132 -318 150 -10 3 -39 9 -64 15 -109 24 -178 32 -340 37 -183 6 -1676
14 -1681 9z"/>
</g>
</svg>
