<?xml version="1.0" standalone="no"?>
<!DOCTYPE svg PUBLIC "-//W3C//DTD SVG 20010904//EN"
 "http://www.w3.org/TR/2001/REC-SVG-20010904/DTD/svg10.dtd">
<svg version="1.0" xmlns="http://www.w3.org/2000/svg"
 width="800.000000pt" height="800.000000pt" viewBox="0 0 800.000000 800.000000"
 preserveAspectRatio="xMidYMid meet">
<metadata>
Created by potrace 1.14, written by Peter Selinger 2001-2017
</metadata>
<g transform="translate(0.000000,800.000000) scale(0.100000,-0.100000)"
fill="#000000" stroke="none">
<path d="M0 4000 l0 -4000 4000 0 4000 0 0 4000 0 4000 -4000 0 -4000 0 0
-4000z m3922 3205 c660 -63 1103 -301 1400 -750 182 -277 278 -596 295 -985
25 -594 -219 -1181 -698 -1675 l-126 -130 124 -225 c852 -1540 1107 -1991
1307 -2305 98 -154 130 -239 102 -268 -23 -22 -71 -26 -541 -37 -711 -17 -660
-17 -692 6 -33 25 -118 182 -169 314 -40 103 -111 249 -209 430 -79 147 -273
526 -508 995 -103 204 -254 501 -336 660 -143 275 -151 288 -151 245 0 -45 22
-435 40 -695 11 -163 33 -545 55 -970 20 -377 31 -528 51 -682 9 -67 14 -148
12 -179 -4 -50 -10 -62 -40 -89 -44 -40 -97 -49 -210 -35 -101 12 -308 2 -718
-36 -364 -34 -512 -37 -557 -9 -61 36 -63 48 -68 427 -2 189 -9 426 -14 528
-32 555 -43 928 -45 1395 -1 478 0 519 21 655 37 246 46 612 39 1565 -3 468
-10 929 -16 1025 -23 435 -24 581 -6 644 25 87 50 106 133 106 37 0 131 7 208
15 77 8 210 22 295 31 427 44 768 54 1022 29z"/>
<path d="M3763 5725 c-28 -15 -57 -32 -63 -40 -9 -11 -9 -56 0 -187 12 -178 9
-248 -15 -378 -17 -93 -35 -323 -28 -369 l6 -33 62 6 c220 22 365 152 411 366
20 92 13 313 -11 404 -58 211 -209 307 -362 231z"/>
</g>
</svg>
