<?xml version="1.0" encoding="UTF-8"?>
<svg id="_Слой_2" data-name="Слой 2" xmlns="http://www.w3.org/2000/svg" viewBox="0 0 404.93 385.81">
  <defs>
    <style>
      .cls-1 {
        fill: #525daf;
      }

      .cls-1, .cls-2, .cls-3 {
        stroke-width: 0px;
      }

      .cls-2 {
        fill: #2b3560;
      }

      .cls-3 {
        fill: #20284c;
      }
    </style>
  </defs>
  <g id="_Слой_2-2" data-name=" Слой 2">
    <g id="background">
      <g id="border">
        <path class="cls-2" d="M375.5,360.23c-29.47,26.58-73.77,24.67-111.38,25.49-45.04.06-89.81.23-134.75-.14-82.11.56-126.53-19.61-128.12-108.94-.28-64.88-3.94-130.54,2.68-195.15C9.44,33.85,39.84,7.29,87.04,3.14,155.9-2.2,225.5.8,294.55,1.15c85.92,1.22,110.63,42.43,110.07,123.68.5,40.81.26,81.71.19,122.47-.79,38.44.71,84.56-29.18,112.82l-.13.12h0Z"/>
      </g>
      <g id="graphic_letter" data-name="graphic letter">
        <path class="cls-3" d="M351.51,329.78c-6.11,0-11.82-1.92-17.13-5.74-53.22-39.12-112.4-65.43-177.52-78.95l1.93,35.17,1.21,35.35c0,5.27-2.29,9.66-6.88,13.19-4.58,3.53-10.33,5.29-17.25,5.29s-12.66-1.77-17.25-5.29c-4.58-3.53-6.87-7.92-6.87-13.19,0-9.45-.6-23.54-1.81-42.26-1.21-18.72-1.81-32.81-1.81-42.26,0-11.01,1.61-27.39,4.82-49.16,3.22-21.77,4.82-38.1,4.82-48.98,0-6.1-.77-15.13-2.29-27.1-1.53-11.96-2.29-21-2.29-27.1,0-6.82,2.57-12.8,7.72-17.95,6.11-6.34,14.55-9.21,25.33-8.61l58.12,3.41c22.03,2.04,40.61,6.04,55.71,12.02,65.12,25.72,97.69,57.12,97.69,94.2,0,18.19-11.1,34.28-33.29,48.27-17.85,11.25-40.13,19.8-66.81,25.66,50,19.98,87.39,41.04,112.16,63.16,4.18,3.83,6.27,7.9,6.27,12.2,0,5.03-2.45,9.39-7.36,13.1-4.91,3.71-10.66,5.56-17.25,5.56l.02.02h0ZM197.95,92.57l-35.7-2.15,2.41,21.71c1.12,8.85,1.69,16.09,1.69,21.71,0,9.57-1.05,21.48-3.14,35.71l-5.07,35.71c2.25,0,5.75.06,10.49.18,4.74.12,8.32.18,10.73.18,41.01,0,71.71-4.07,92.14-12.2,9-3.71,17.37-8.55,25.09-14.54,8.52-6.7,12.79-12.38,12.79-17.05,0-16.63-12.71-32.12-38.11-46.48-23.32-13.16-47.76-20.76-73.32-22.79h0Z"/>
        <path class="cls-1" d="M311.52,329.78c-6.11,0-11.82-1.92-17.13-5.74-53.22-39.12-112.4-65.43-177.52-78.95l1.93,35.17,1.21,35.35c0,5.27-2.29,9.66-6.88,13.19-4.58,3.53-10.33,5.29-17.25,5.29s-12.66-1.77-17.25-5.29c-4.58-3.53-6.87-7.92-6.87-13.19,0-9.45-.6-23.54-1.81-42.26-1.21-18.72-1.81-32.81-1.81-42.26,0-11.01,1.61-27.39,4.82-49.16,3.22-21.77,4.82-38.1,4.82-48.98,0-6.1-.77-15.13-2.29-27.1-1.53-11.96-2.29-21-2.29-27.1,0-6.82,2.57-12.8,7.72-17.95,6.11-6.34,14.55-9.21,25.33-8.61l58.12,3.41c22.03,2.04,40.61,6.04,55.71,12.02,65.12,25.72,97.69,57.12,97.69,94.2,0,18.19-11.1,34.28-33.29,48.27-17.85,11.25-40.13,19.8-66.81,25.66,50,19.98,87.39,41.04,112.16,63.16,4.18,3.83,6.27,7.9,6.27,12.2,0,5.03-2.45,9.39-7.36,13.1-4.91,3.71-10.66,5.56-17.25,5.56l.02.02h0ZM158.49,92.57l-35.7-2.15,2.41,21.71c1.12,8.85,1.69,16.09,1.69,21.71,0,9.57-1.05,21.48-3.14,35.71l-5.07,35.71c2.25,0,5.75.06,10.49.18,4.74.12,8.32.18,10.73.18,41.01,0,71.71-4.07,92.14-12.2,9-3.71,17.37-8.55,25.09-14.54,8.52-6.7,12.79-12.38,12.79-17.05,0-16.63-12.71-32.12-38.11-46.48-23.32-13.16-47.76-20.76-73.32-22.79h0Z"/>
      </g>
    </g>
  </g>
</svg>