<?xml version="1.0" encoding="UTF-8"?>
<svg id="background" xmlns="http://www.w3.org/2000/svg" viewBox="0 0 500 500">
  <defs>
    <style>
      .cls-1 {
        fill: #515bc9;
      }

      .cls-1, .cls-2, .cls-3 {
        stroke-width: 0px;
      }

      .cls-2 {
        fill: #5f5cff;
      }

      .cls-3 {
        fill: #404792;
      }
    </style>
  </defs>
  <g id="border">
    <path class="cls-3" d="M422.92,417.14c-29.47,26.58-73.78,24.67-111.39,25.49-45.04.06-89.82.23-134.76-.14-82.12.56-126.54-19.61-128.13-108.95-.28-64.89-3.94-130.55,2.68-195.17,5.5-47.64,35.9-74.2,83.11-78.35,68.87-5.34,138.47-2.34,207.53-1.99,85.93,1.22,110.64,42.43,110.08,123.69.5,40.81.26,81.72.19,122.48-.79,38.44.71,84.57-29.18,112.83l-.13.12Z"/>
  </g>
  <g id="graphic_letter" data-name="graphic letter">
    <path class="cls-1" d="M370.39,386.69c-6.11,0-11.82-1.92-17.13-5.74-53.23-39.12-112.41-65.44-177.54-78.96l1.93,35.17,1.21,35.35c0,5.27-2.29,9.66-6.88,13.19-4.58,3.53-10.33,5.29-17.25,5.29s-12.66-1.77-17.25-5.29c-4.58-3.53-6.87-7.92-6.87-13.19,0-9.45-.6-23.54-1.81-42.26-1.21-18.72-1.81-32.81-1.81-42.26,0-11.01,1.61-27.39,4.82-49.17,3.22-21.77,4.82-38.1,4.82-48.99,0-6.1-.77-15.13-2.29-27.1-1.53-11.96-2.29-21-2.29-27.1,0-6.82,2.57-12.8,7.72-17.95,6.11-6.34,14.55-9.21,25.33-8.61l58.13,3.41c22.03,2.04,40.61,6.04,55.72,12.02,65.13,25.72,97.7,57.13,97.7,94.21,0,18.19-11.1,34.28-33.29,48.27-17.85,11.25-40.13,19.8-66.82,25.66,50.01,19.98,87.4,41.04,112.17,63.17,4.18,3.83,6.27,7.9,6.27,12.2,0,5.03-2.45,9.39-7.36,13.1-4.91,3.71-10.66,5.56-17.25,5.56ZM216.74,149.45l-35.7-2.15,2.41,21.71c1.12,8.85,1.69,16.09,1.69,21.71,0,9.57-1.05,21.48-3.14,35.71l-5.07,35.71c2.25,0,5.75.06,10.49.18,4.74.12,8.32.18,10.73.18,41.01,0,71.72-4.07,92.15-12.2,9-3.71,17.37-8.55,25.09-14.54,8.52-6.7,12.79-12.38,12.79-17.05,0-16.63-12.71-32.12-38.11-46.48-23.32-13.16-47.76-20.76-73.33-22.79Z"/>
    <path class="cls-2" d="M359.39,386.69c-6.11,0-11.82-1.92-17.13-5.74-53.23-39.12-112.41-65.44-177.54-78.96l1.93,35.17,1.21,35.35c0,5.27-2.29,9.66-6.88,13.19-4.58,3.53-10.33,5.29-17.25,5.29s-12.66-1.77-17.25-5.29c-4.58-3.53-6.87-7.92-6.87-13.19,0-9.45-.6-23.54-1.81-42.26-1.21-18.72-1.81-32.81-1.81-42.26,0-11.01,1.61-27.39,4.82-49.17,3.22-21.77,4.82-38.1,4.82-48.99,0-6.1-.77-15.13-2.29-27.1-1.53-11.96-2.29-21-2.29-27.1,0-6.82,2.57-12.8,7.72-17.95,6.11-6.34,14.55-9.21,25.33-8.61l58.13,3.41c22.03,2.04,40.61,6.04,55.72,12.02,65.13,25.72,97.7,57.13,97.7,94.21,0,18.19-11.1,34.28-33.29,48.27-17.85,11.25-40.13,19.8-66.82,25.66,50.01,19.98,87.4,41.04,112.17,63.17,4.18,3.83,6.27,7.9,6.27,12.2,0,5.03-2.45,9.39-7.36,13.1-4.91,3.71-10.66,5.56-17.25,5.56ZM205.74,149.45l-35.7-2.15,2.41,21.71c1.12,8.85,1.69,16.09,1.69,21.71,0,9.57-1.05,21.48-3.14,35.71l-5.07,35.71c2.25,0,5.75.06,10.49.18,4.74.12,8.32.18,10.73.18,41.01,0,71.72-4.07,92.15-12.2,9-3.71,17.37-8.55,25.09-14.54,8.52-6.7,12.79-12.38,12.79-17.05,0-16.63-12.71-32.12-38.11-46.48-23.32-13.16-47.76-20.76-73.33-22.79Z"/>
  </g>
</svg>