<?xml version="1.0" standalone="no"?>
<!DOCTYPE svg PUBLIC "-//W3C//DTD SVG 20010904//EN"
 "http://www.w3.org/TR/2001/REC-SVG-20010904/DTD/svg10.dtd">
<svg version="1.0" xmlns="http://www.w3.org/2000/svg"
 width="500.000000pt" height="500.000000pt" viewBox="0 0 500.000000 500.000000"
 preserveAspectRatio="xMidYMid meet">
<metadata>
Created by potrace 1.14, written by Peter Selinger 2001-2017
</metadata>
<g transform="translate(0.000000,500.000000) scale(0.100000,-0.100000)"
fill="#000000" stroke="none">
<path d="M0 2500 l0 -2500 2500 0 2500 0 0 2500 0 2500 -2500 0 -2500 0 0
-2500z m2425 1869 c473 -35 778 -220 955 -577 118 -241 146 -584 70 -862 -58
-210 -194 -442 -373 -635 l-84 -91 159 -289 c325 -590 536 -962 682 -1204 98
-160 113 -205 75 -219 -39 -15 -704 -26 -728 -12 -24 12 -65 90 -112 207 -17
43 -75 161 -129 263 -54 102 -163 316 -243 475 -80 160 -195 387 -256 505
l-110 215 5 -80 c32 -538 46 -773 59 -1005 9 -151 21 -315 27 -365 18 -141 13
-186 -22 -205 -12 -7 -103 -13 -218 -15 -108 -2 -264 -11 -347 -19 -82 -9
-189 -16 -236 -16 -72 0 -89 3 -107 20 -12 12 -22 22 -23 23 -1 1 -3 108 -5
237 -2 129 -8 303 -14 385 -16 229 -24 1110 -11 1165 6 25 17 212 23 415 9
296 9 466 -3 855 -18 649 -18 719 2 751 16 24 24 26 255 48 434 43 506 46 709
30z"/>
<path d="M2365 3470 c-44 -17 -48 -33 -41 -153 5 -81 3 -141 -8 -216 -9 -58
-16 -138 -16 -179 l0 -74 48 6 c112 16 208 92 236 187 23 76 21 221 -4 302
-28 90 -79 137 -148 136 -26 0 -56 -4 -67 -9z"/>
</g>
</svg>
